<svg xmlns="http://www.w3.org/2000/svg" version="1.1" xmlns:xlink="http://www.w3.org/1999/xlink" xmlns:svgjs="http://svgjs.com/svgjs" width="655" height="300" transform="matrix(1,0,0,1,0,0)">
  <text font-family="DM Sans" font-size="260" text-anchor="left" x="310" charspacing="20px">
    <tspan dy="239.20000000000002" x="310">.</tspan>
  </text>
  <path transform="matrix(1,0,0,1,148,149.33)" d="M-101.526,58.423A9.513495001088021,9.513495001088021,-21.689234093748134,0,0,-99.5,77L-85.384,78.141A60,60,241.2214350136732,0,0,-30.459,51.363L-10.186,20.615A60,60,117.13499785365272,0,1,46.452,-5.999L51,-5.5A8.516458007811027,8.516458007811027,23.33280122642227,0,1,52.571,11.107ZM-58.423,-101.526A9.51349500108802,9.51349500108802,-21.68923409374813,0,0,-77,-99.5L-78.141,-85.384A60,60,-118.77856498632686,0,0,-51.363,-30.459L-20.615,-10.186A60,60,117.13499785365272,0,1,5.999,46.452L5.5,51A8.51645800781104,8.51645800781104,-336.6671987735777,0,1,-11.107,52.571ZM101.526,-58.423A9.513495001088021,9.513495001088021,-21.689234093748134,0,0,99.5,-77L85.384,-78.141A60,60,-118.77856498632686,0,0,30.459,-51.363L10.186,-20.615A60,60,-242.86500214634728,0,1,-46.452,5.999L-51,5.5A8.516458007811027,8.516458007811027,23.33280122642227,0,1,-52.571,-11.107ZM58.423,101.526A9.51349500108801,9.51349500108801,338.3107659062519,0,0,77,99.5L78.141,85.384A60,60,-118.77856498632686,0,0,51.363,30.459L20.615,10.186A60,60,117.13499785365272,0,1,-5.999,-46.452L-5.5,-51A8.516458007811027,8.516458007811027,23.33280122642227,0,1,11.107,-52.571Z"/>
</svg>